<?xml version="1.0" encoding="UTF-8" standalone="no"?>
<!-- Created with Inkscape (http://www.inkscape.org/) -->

<svg
   xmlns:dc="http://purl.org/dc/elements/1.1/"
   xmlns:cc="http://creativecommons.org/ns#"
   xmlns:rdf="http://www.w3.org/1999/02/22-rdf-syntax-ns#"
   xmlns:svg="http://www.w3.org/2000/svg"
   xmlns="http://www.w3.org/2000/svg"
   xmlns:sodipodi="http://sodipodi.sourceforge.net/DTD/sodipodi-0.dtd"
   xmlns:inkscape="http://www.inkscape.org/namespaces/inkscape"
   width="512"
   height="512"
   viewBox="0 0 135.46666 135.46667"
   version="1.1"
   id="svg8"
   inkscape:export-filename="F:\Unity Projects\Fertiliel-DC\Assets\UI\Icons\add.png"
   inkscape:export-xdpi="96"
   inkscape:export-ydpi="96"
   inkscape:version="0.92.1 r15371"
   sodipodi:docname="add equip icon.svg">
  <defs
     id="defs2" />
  <sodipodi:namedview
     id="base"
     pagecolor="#ffffff"
     bordercolor="#666666"
     borderopacity="1.0"
     inkscape:pageopacity="0.0"
     inkscape:pageshadow="2"
     inkscape:zoom="0.98994949"
     inkscape:cx="339.09676"
     inkscape:cy="328.67054"
     inkscape:document-units="mm"
     inkscape:current-layer="layer1"
     showgrid="false"
     units="px"
     inkscape:window-width="1920"
     inkscape:window-height="1017"
     inkscape:window-x="-8"
     inkscape:window-y="-8"
     inkscape:window-maximized="1" />
  <metadata
     id="metadata5">
    <rdf:RDF>
      <cc:Work
         rdf:about="">
        <dc:format>image/svg+xml</dc:format>
        <dc:type
           rdf:resource="http://purl.org/dc/dcmitype/StillImage" />
        <dc:title></dc:title>
      </cc:Work>
    </rdf:RDF>
  </metadata>
  <g
     inkscape:label="Camada 1"
     inkscape:groupmode="layer"
     id="layer1"
     transform="translate(0,-161.53332)">
    <path
       style="opacity:1;vector-effect:none;fill:#f2f2f2;fill-opacity:1;fill-rule:nonzero;stroke:none;stroke-width:0.59097672;stroke-linecap:butt;stroke-linejoin:miter;stroke-miterlimit:4;stroke-dasharray:none;stroke-dashoffset:0;stroke-opacity:1;paint-order:fill markers stroke"
       d="M 67.733334,174.8968 A 54.369857,54.369853 0 0 0 13.363478,229.26664 54.369857,54.369853 0 0 0 67.733334,283.6365 54.369857,54.369853 0 0 0 122.10318,229.26664 54.369857,54.369853 0 0 0 67.733334,174.8968 Z m 0,11.65078 a 42.719176,42.719174 0 0 1 42.719296,42.71906 42.719176,42.719174 0 0 1 -42.719296,42.7193 42.719176,42.719174 0 0 1 -42.719072,-42.7193 42.719176,42.719174 0 0 1 42.719072,-42.71906 z"
       id="path10"
       inkscape:connector-curvature="0"
       inkscape:export-xdpi="96"
       inkscape:export-ydpi="96" />
    <path
       style="opacity:1;vector-effect:none;fill:#f2f2f2;fill-opacity:1;fill-rule:nonzero;stroke:none;stroke-width:0.88758892;stroke-linecap:butt;stroke-linejoin:miter;stroke-miterlimit:4;stroke-dasharray:none;stroke-dashoffset:0;stroke-opacity:1;paint-order:fill markers stroke"
       d="m 64.287306,196.04418 c -2.377087,0 -4.290784,1.91369 -4.290784,4.29078 v 21.19509 H 38.801436 c -2.377086,0 -4.290784,1.91369 -4.290784,4.29078 v 6.89206 c 0,2.37708 1.913698,4.29036 4.290784,4.29036 h 21.195086 v 21.19551 c 0,2.37708 1.913697,4.29036 4.290784,4.29036 h 6.892052 c 2.377087,0 4.290786,-1.91328 4.290786,-4.29036 v -21.19551 h 21.195083 c 2.377089,0 4.290783,-1.91328 4.290783,-4.29036 v -6.89206 c 0,-2.37709 -1.913694,-4.29078 -4.290783,-4.29078 H 75.470144 v -21.19509 c 0,-2.37709 -1.913699,-4.29078 -4.290786,-4.29078 z"
       id="rect28"
       inkscape:connector-curvature="0"
       inkscape:export-xdpi="96"
       inkscape:export-ydpi="96" />
  </g>
</svg>
