<?xml version="1.0" encoding="UTF-8" standalone="no"?>
<svg
   xmlns:dc="http://purl.org/dc/elements/1.1/"
   xmlns:cc="http://creativecommons.org/ns#"
   xmlns:rdf="http://www.w3.org/1999/02/22-rdf-syntax-ns#"
   xmlns:svg="http://www.w3.org/2000/svg"
   xmlns="http://www.w3.org/2000/svg"
   xmlns:sodipodi="http://sodipodi.sourceforge.net/DTD/sodipodi-0.dtd"
   xmlns:inkscape="http://www.inkscape.org/namespaces/inkscape"
   viewBox="0 0 512 512"
   style="height: 512px; width: 512px;"
   version="1.1"
   id="svg6"
   sodipodi:docname="spiky-explosion.svg"
   inkscape:export-filename="C:\Unity Projects\XCore1\Assets\Sprites\Placeholders\engage.png"
   inkscape:export-xdpi="128"
   inkscape:export-ydpi="128"
   inkscape:version="0.92.4 (5da689c313, 2019-01-14)">
  <metadata
     id="metadata12">
    <rdf:RDF>
      <cc:Work
         rdf:about="">
        <dc:format>image/svg+xml</dc:format>
        <dc:type
           rdf:resource="http://purl.org/dc/dcmitype/StillImage" />
      </cc:Work>
    </rdf:RDF>
  </metadata>
  <defs
     id="defs10" />
  <sodipodi:namedview
     pagecolor="#ffffff"
     bordercolor="#666666"
     borderopacity="1"
     objecttolerance="10"
     gridtolerance="10"
     guidetolerance="10"
     inkscape:pageopacity="0"
     inkscape:pageshadow="2"
     inkscape:window-width="1920"
     inkscape:window-height="1017"
     id="namedview8"
     showgrid="false"
     inkscape:zoom="1.3037281"
     inkscape:cx="195.53975"
     inkscape:cy="286.28585"
     inkscape:window-x="-8"
     inkscape:window-y="-8"
     inkscape:window-maximized="1"
     inkscape:current-layer="svg6" />
  <path
     style="fill:#c9c9c9;fill-opacity:1;stroke-width:1"
     d="m -238.10192,11.139435 c -29.13689,60.536368 -52.84996,122.110235 -71.95734,184.568995 -13.8192,-42.64771 -31.07201,-84.60022 -52.19292,-125.771685 0.26176,38.624875 3.73034,76.206955 10.00938,112.874465 -41.27002,-37.42841 -84.73798,-73.01074 -130.65927,-106.526534 31.70998,46.489314 65.95913,90.044174 102.41469,131.045024 -28.08562,-8.71542 -60.31064,-10.75121 -93.34319,-6.32674 20.81888,15.85393 45.2547,29.83846 71.20703,38.15117 -51.3165,2.92175 -102.84495,8.29046 -154.60549,16.37321 43.99042,8.31378 87.80068,14.17422 131.45515,17.84839 -23.38136,9.43818 -46.53912,19.98062 -69.45208,31.73542 43.03452,-0.29144 84.7772,-4.55695 125.40077,-12.26878 -17.74029,23.03482 -33.53488,47.86064 -47.67836,74.2125 27.27279,-16.02349 52.96442,-33.78498 76.88944,-53.49324 -13.25117,61.72859 -22.58337,124.20643 -28.71087,187.29893 22.94369,-53.60982 43.49657,-108.08757 61.33542,-163.54983 11.95615,29.75368 25.64288,58.94356 40.8599,87.63748 -2.62819,-39.56912 -7.41828,-78.70163 -14.61719,-117.34664 49.63043,45.65423 102.26632,87.83459 157.3439,127.18858 -41.16618,-54.96948 -85.0326,-107.66684 -132.02848,-157.73389 69.06421,-2.64727 137.77552,-10.13126 206.202826,-21.52786 -50.338346,-7.22541 -100.844136,-12.51252 -151.534326,-15.65787 20.77861,-9.1531 41.28804,-19.13917 61.54844,-29.88297 -38.751,2.57203 -77.08338,7.21057 -114.94842,14.16151 12.88662,-17.31004 24.82688,-35.66499 35.72963,-55.16024 -17.75619,8.70483 -34.43461,18.4037 -50.14441,28.99489 14.01843,-61.00266 24.64989,-123.232509 31.47471,-186.843225 z"
     id="path28"
     inkscape:connector-curvature="0" />
  <path
     style="fill:#ffffff;stroke:#000000;stroke-width:5;stroke-linecap:butt;stroke-linejoin:miter;stroke-opacity:1;stroke-miterlimit:4;stroke-dasharray:none"
     d="m 198.69459,155.32733 51.88168,-141.225635 49.89831,143.186445 52.06779,-40.13559 -19.52542,81.35593 165.9661,-85.69492 -113.89831,149.69492 54.23729,71.59322 -74.84746,15.18643 74.84746,150.77967 -170.30508,-123.66102 -28.20339,41.22034 -26.0339,-52.0678 L 71.593224,490.30509 155.11864,303.72881 88.949149,326.50848 137.76271,277.69492 14.101695,175.72882 l 153.244285,0.31771 -20.9053,-41.53805 z"
     id="path34"
     inkscape:connector-curvature="0"
     sodipodi:nodetypes="ccccccccccccccccccccc" />
</svg>
