<?xml version="1.0" standalone="no"?>
<!DOCTYPE svg PUBLIC "-//W3C//DTD SVG 20010904//EN"
 "http://www.w3.org/TR/2001/REC-SVG-20010904/DTD/svg10.dtd">
<svg version="1.0" xmlns="http://www.w3.org/2000/svg"
 width="864.000000pt" height="1280.000000pt" viewBox="0 0 864.000000 1280.000000"
 preserveAspectRatio="xMidYMid meet">
<metadata>
Created by potrace 1.15, written by Peter Selinger 2001-2017
</metadata>
<g transform="translate(0.000000,1280.000000) scale(0.100000,-0.100000)"
fill="#000000" stroke="none">
<path d="M4461 12786 c-26 -14 -50 -51 -51 -78 0 -9 41 -157 91 -328 50 -171
90 -313 88 -315 -2 -2 -42 1 -89 7 -104 12 -310 4 -406 -16 -138 -29 -297
-104 -419 -196 l-65 -49 0 38 c0 32 -87 290 -231 682 -20 56 -21 56 -76 69
-66 16 -95 5 -126 -48 -21 -36 -22 -26 28 -287 8 -38 30 -162 51 -275 l37
-205 42 -50 43 -50 -26 -104 c-18 -79 -22 -109 -14 -120 40 -56 71 -121 66
-135 -3 -8 -14 -18 -25 -21 -10 -4 -125 29 -269 76 l-250 82 -308 -47 c-169
-26 -319 -49 -333 -52 -22 -4 -45 -39 -152 -237 -69 -128 -163 -307 -208 -399
l-82 -168 22 -84 c36 -144 58 -192 126 -269 65 -76 66 -79 80 -224 5 -48 72
-211 111 -271 l35 -53 6 -183 6 -184 -58 -91 -58 -91 -63 0 -63 0 -16 -57
c-35 -123 -49 -168 -55 -175 -3 -4 -53 10 -110 32 -58 22 -107 40 -109 40 -2
0 -1 -108 3 -239 l7 -240 -149 -323 c-82 -178 -172 -375 -200 -438 -49 -112
-141 -403 -147 -466 -1 -17 -8 -40 -14 -52 -6 -11 -20 -69 -32 -128 -11 -60
-24 -115 -29 -124 -5 -9 -40 -32 -79 -51 l-70 -34 -31 -100 c-17 -55 -70 -224
-116 -375 -106 -341 -305 -966 -520 -1633 l-164 -509 0 -107 c0 -88 -7 -137
-36 -267 -57 -251 -57 -245 -36 -261 92 -75 184 -108 323 -118 l94 -7 16 28
c92 164 294 501 305 510 8 6 14 15 14 20 0 12 134 244 141 244 3 0 11 -97 18
-217 19 -308 18 -307 82 -408 55 -87 78 -107 150 -129 l36 -11 -21 -110 -21
-110 -242 -175 -242 -175 0 -100 c-1 -124 14 -290 40 -460 34 -210 98 -518
112 -531 6 -7 68 -60 137 -119 69 -58 128 -116 132 -128 3 -12 6 -42 7 -67 1
-38 -7 -59 -50 -129 -50 -81 -51 -84 -45 -141 6 -56 4 -65 -89 -301 -53 -134
-100 -248 -106 -253 -5 -6 -9 -17 -9 -25 0 -8 -27 -84 -61 -169 -33 -85 -59
-156 -57 -157 2 -2 183 -21 403 -43 l400 -39 330 162 330 161 40 108 c22 59
42 109 45 111 3 1 68 -3 145 -11 l140 -13 273 181 c149 100 272 184 272 188 0
3 -35 85 -79 182 l-78 175 29 79 c81 219 139 453 177 710 41 277 59 787 44
1209 -8 203 -7 241 5 248 17 11 8 117 -13 157 -10 17 -17 108 -24 303 l-9 277
-40 73 -39 72 17 51 c10 27 25 64 33 81 9 17 22 63 28 101 16 97 17 98 74 78
l48 -16 201 193 c589 567 818 778 841 777 6 -1 34 -74 64 -164 58 -177 125
-330 159 -359 42 -38 73 -6 159 169 27 54 78 167 112 251 l64 151 86 12 c47 7
125 17 173 24 l87 13 21 -56 c12 -31 39 -103 60 -161 62 -169 60 -166 70 -150
8 13 11 13 24 0 7 -8 83 -168 166 -355 230 -511 281 -614 328 -659 23 -22 39
-43 36 -47 -2 -4 -9 -31 -14 -59 -10 -51 -9 -54 39 -143 l49 -92 -9 -115 c-12
-160 -12 -567 1 -735 30 -412 81 -712 170 -1010 144 -480 339 -939 589 -1382
40 -71 54 -109 71 -193 24 -118 27 -123 153 -267 89 -102 90 -102 140 -105
l50 -3 22 -70 c21 -69 22 -70 201 -242 l179 -173 85 0 c155 0 367 35 515 86
71 24 273 109 283 118 2 2 -52 156 -119 342 l-121 338 23 75 c19 59 24 98 24
181 0 58 -3 117 -7 131 -7 25 2 36 122 145 l130 118 -6 401 c-4 220 -9 481
-13 579 l-6 180 -269 113 c-148 62 -273 116 -277 120 -4 5 -71 150 -149 323
-78 173 -175 385 -214 470 -40 85 -176 383 -302 662 l-229 507 -53 3 -54 3
-19 50 c-11 30 -23 101 -30 180 -6 71 -27 207 -46 300 -31 149 -35 181 -30
261 4 50 15 124 26 165 30 111 44 263 44 474 0 163 -3 201 -22 269 -27 102
-59 143 -267 346 -90 87 -168 170 -174 184 -5 15 -15 23 -22 21 -24 -10 -136
118 -298 340 l-161 220 5 140 c3 77 6 177 6 222 l0 83 89 76 c84 70 90 79 101
127 12 58 210 720 242 810 11 31 24 57 27 57 4 0 50 -44 103 -97 l97 -98 86
-204 85 -204 0 -411 c0 -757 62 -1366 175 -1714 44 -136 72 -182 229 -372 70
-85 146 -183 168 -217 23 -35 46 -63 53 -63 7 0 129 16 271 35 142 19 358 46
479 61 121 15 226 31 234 37 7 6 31 38 53 72 50 73 62 84 166 141 l82 46 0
399 c0 241 -4 408 -10 419 -5 10 -41 41 -79 69 l-69 51 5 68 c7 84 25 129 58
144 16 7 25 18 22 27 -2 9 -48 82 -101 164 l-96 147 -48 0 -47 1 -294 526
-293 527 -25 465 c-13 256 -22 506 -19 554 l5 89 60 83 c54 74 61 89 61 131 0
26 5 86 12 134 l11 86 -42 63 c-109 160 -230 284 -456 466 l-110 89 -215 1
c-200 0 -226 -2 -365 -30 -150 -30 -272 -38 -346 -22 -34 7 -41 16 -117 150
-44 78 -102 188 -128 245 -44 97 -49 103 -73 98 -14 -3 -110 -8 -213 -12
l-187 -6 -26 -34 c-15 -19 -36 -45 -48 -58 -21 -23 -70 -83 -93 -114 -9 -12
-18 -12 -67 4 -54 17 -59 22 -97 85 l-39 66 -43 -8 c-70 -13 -68 -15 -52 49
17 72 17 199 0 277 -35 161 -58 225 -89 251 l-30 25 7 80 c7 80 6 80 -42 192
-27 62 -102 221 -167 353 l-117 242 -50 16 c-60 19 -95 20 -127 2z m-15 -48
c-18 -26 -22 -17 -5 14 6 11 13 17 16 15 3 -3 -2 -16 -11 -29z m-1216 -152 c0
-2 -8 -10 -17 -17 -16 -13 -17 -12 -4 4 13 16 21 21 21 13z m1717 -673 c-3
-10 -5 -4 -5 12 0 17 2 24 5 18 2 -7 2 -21 0 -30z m-1360 -125 c-3 -7 -5 -2
-5 12 0 14 2 19 5 13 2 -7 2 -19 0 -25z m2383 -450 c10 -20 9 -21 -3 -6 -7 10
-32 18 -58 21 l-44 4 47 1 c40 2 49 -1 58 -20z m-509 -125 c-8 -15 -10 -15
-11 -2 0 17 10 32 18 25 2 -3 -1 -13 -7 -23z m-35 -59 c-4 -20 -10 -34 -12
-31 -3 3 -2 21 2 41 3 21 9 35 11 32 3 -3 2 -21 -1 -42z m-3660 -2268 c64 -25
91 -31 96 -23 5 8 8 7 8 -4 0 -9 -3 -18 -6 -21 -4 -5 -182 66 -193 78 -9 9 11
3 95 -30z m-113 -6 c-7 -28 -13 -25 -13 6 0 14 4 23 9 20 5 -3 7 -15 4 -26z
m1672 -445 c211 -255 233 -291 52 -85 -148 169 -267 316 -267 331 0 16 -22 41
215 -246z m-154 138 c75 -97 208 -249 340 -390 l115 -121 36 -154 37 -153 -32
-25 c-17 -14 -88 -74 -157 -134 -69 -59 -135 -115 -147 -123 -12 -8 -93 -34
-180 -58 -87 -25 -170 -48 -184 -52 -29 -9 -409 -395 -503 -510 -63 -79 -70
-100 -182 -523 -39 -151 -69 -216 -201 -437 -54 -90 -56 -98 -79 -235 -13 -82
-19 -145 -14 -148 5 -3 -2 -41 -16 -85 -48 -153 -55 -202 -61 -432 -3 -123 -8
-223 -12 -223 -3 0 -5 42 -3 92 l3 93 -64 -110 c-35 -60 -92 -153 -126 -205
-34 -52 -98 -167 -142 -255 -91 -186 -269 -523 -269 -513 0 21 132 313 206
454 46 89 84 165 84 168 0 4 -5 4 -12 0 -6 -4 7 28 31 71 l42 78 -9 501 c-5
276 -9 515 -9 531 0 17 6 103 13 193 8 89 14 167 14 172 0 6 30 10 68 10 38 0
95 9 132 20 36 11 66 20 68 20 1 0 -6 -12 -17 -27 -28 -39 -44 -115 -31 -149
8 -20 7 -29 -3 -38 -8 -6 -63 -64 -122 -130 l-109 -119 24 -19 c35 -29 72 -17
149 46 76 63 240 226 227 226 -5 0 2 10 16 23 20 19 27 40 38 115 10 74 16 92
30 92 21 0 55 36 71 75 16 42 23 264 11 359 l-11 80 59 90 c33 50 67 96 77
102 10 6 50 55 88 108 68 93 71 96 110 96 54 1 82 18 124 78 123 174 149 215
191 307 51 108 109 278 140 409 49 206 90 539 90 734 0 50 2 92 4 92 2 0 28
-30 57 -67z m-1531 -154 c-33 -60 -41 -60 -10 1 11 22 20 54 21 72 1 32 1 32
10 7 8 -20 4 -36 -21 -80z m3477 -575 c-3 -3 -12 -4 -19 -1 -8 3 -5 6 6 6 11
1 17 -2 13 -5z m928 -374 c81 -113 178 -235 214 -272 36 -38 62 -68 58 -68 -4
0 -58 42 -120 93 -100 84 -124 111 -225 253 -62 87 -108 160 -103 162 6 2 11
15 11 30 0 33 -10 45 165 -198z m837 -790 c16 -69 41 -160 55 -203 13 -44 22
-81 20 -84 -15 -14 -131 430 -126 481 1 12 4 -1 51 -194z m-4875 64 c-3 -3
-12 -4 -19 -1 -8 3 -5 6 6 6 11 1 17 -2 13 -5z m4997 -416 c20 -29 33 -54 31
-57 -6 -6 -26 21 -55 72 -31 54 -16 45 24 -15z m-5316 -23 c-12 -24 -23 -43
-25 -41 -7 6 29 86 38 86 5 0 -1 -20 -13 -45z m3536 -255 c30 -85 77 -206 105
-269 28 -63 50 -116 47 -118 -8 -9 -120 239 -161 357 -42 121 -63 201 -52 190
3 -3 31 -75 61 -160z m-3497 14 c-3 -3 -12 -4 -19 -1 -8 3 -5 6 6 6 11 1 17
-2 13 -5z m3483 -69 c0 -5 -5 -3 -10 5 -5 8 -10 20 -10 25 0 6 5 3 10 -5 5 -8
10 -19 10 -25z m-3652 -132 c5 -35 6 -63 3 -63 -3 0 -16 8 -28 18 -23 17 -23
17 -6 70 20 61 20 60 31 -25z m5800 -9 c-4 -3 -12 5 -18 18 -12 22 -12 22 6 6
10 -10 15 -20 12 -24z m225 29 c-7 -2 -21 -2 -30 0 -10 3 -4 5 12 5 17 0 24
-2 18 -5z m-98 -13 c-27 -5 -63 -8 -80 -8 l-30 0 30 8 c17 4 53 8 80 7 l50 0
-50 -7z m-5919 -92 c56 -42 74 -64 74 -92 0 -11 -9 -14 -37 -10 -45 6 -121 32
-128 44 -5 8 24 100 31 100 3 0 30 -19 60 -42z m3770 -74 c9 -21 11 -33 4 -29
-11 7 -22 30 -34 75 -6 21 -5 22 4 7 6 -9 18 -33 26 -53z m-3721 -54 c29 0 32
-12 8 -36 -14 -14 -31 -16 -101 -11 -46 3 -85 7 -88 10 -3 2 2 23 11 45 l17
41 64 -25 c35 -13 76 -24 89 -24z m115 -36 c0 -2 -7 -4 -15 -4 -8 0 -15 4 -15
10 0 5 7 7 15 4 8 -4 15 -8 15 -10z m-252 -31 c-10 -2 -28 -2 -40 0 -13 2 -5
4 17 4 22 1 32 -1 23 -4z m677 -65 c13 -5 7 -6 -20 -2 -22 3 -44 10 -50 15
-11 11 35 3 70 -13z m2446 -35 c-11 -21 -30 -49 -42 -63 l-21 -25 17 29 c10
16 26 44 37 63 27 45 33 42 9 -4z m-3127 -155 c21 -209 8 -889 -19 -991 -34
-130 -226 -589 -240 -575 -13 12 -36 227 -51 473 -14 239 -19 273 -37 300 -32
48 -69 85 -79 79 -4 -3 1 16 11 43 11 26 55 136 99 243 44 107 92 227 107 265
23 62 36 79 107 143 45 39 84 72 89 72 4 0 10 -24 13 -52z m5393 -430 c-3 -8
-6 -5 -6 6 -1 11 2 17 5 13 3 -3 4 -12 1 -19z m79 -57 c-24 -25 -36 -45 -33
-55 4 -10 1 -13 -9 -9 -24 9 -16 30 29 67 55 47 60 45 13 -3z m-4146 -58 l55
-58 -57 55 -58 54 -51 -54 -52 -55 26 44 c22 38 56 69 77 71 3 0 30 -26 60
-57z m116 -125 l29 -33 -32 29 c-31 28 -38 36 -30 36 2 0 16 -15 33 -32z m55
-65 c13 -16 12 -17 -3 -4 -17 13 -22 21 -14 21 2 0 10 -8 17 -17z m111 -135
c38 -54 11 -27 -41 40 -29 37 -36 49 -16 27 20 -22 46 -52 57 -67z m-1284 29
c-6 -20 -15 -37 -20 -37 -11 0 -10 4 9 45 21 44 26 40 11 -8z m1299 1 c-3 -8
-6 -5 -6 6 -1 11 2 17 5 13 3 -3 4 -12 1 -19z m2993 -41 c0 -6 -9 -2 -20 8
-11 10 -20 23 -20 28 0 6 9 2 20 -8 11 -10 20 -23 20 -28z m-4530 -47 c-22
-44 -42 -80 -45 -80 -3 0 13 36 35 80 22 44 42 80 45 80 3 0 -13 -36 -35 -80z
m4454 -9 c-9 -29 -18 -51 -20 -48 -2 2 3 27 12 56 8 29 17 51 19 49 2 -2 -3
-28 -11 -57z m-5093 -64 c-10 -9 -11 -8 -5 6 3 10 9 15 12 12 3 -3 0 -11 -7
-18z m582 -32 c-3 -9 -8 -14 -10 -11 -3 3 -2 9 2 15 9 16 15 13 8 -4z m4474
-22 c-3 -10 -5 -4 -5 12 0 17 2 24 5 18 2 -7 2 -21 0 -30z m1040 -5 c-3 -7 -5
-2 -5 12 0 14 2 19 5 13 2 -7 2 -19 0 -25z m-648 -323 c0 -22 -34 36 -95 160
-35 72 -64 135 -64 140 0 6 36 -57 80 -140 44 -82 79 -154 79 -160z m676 156
c-10 -9 -13 6 -19 79 l-5 75 14 -74 c8 -41 12 -77 10 -80z m-3893 -263 c3 -26
2 -45 -3 -42 -5 3 -9 26 -9 51 0 58 6 53 12 -9z m-12 -439 c6 -215 7 -413 2
-504 -9 -149 -9 -148 -11 125 0 151 -4 381 -7 510 -4 129 -4 232 0 229 3 -3
11 -165 16 -360z m-2731 105 c8 -7 -143 -2 -174 6 -16 4 15 5 70 2 55 -3 102
-6 104 -8z m288 -871 c-3 -10 -5 -2 -5 17 0 19 2 27 5 18 2 -10 2 -26 0 -35z
m31 -233 c-1 -37 -17 63 -22 135 l-5 80 14 -100 c8 -55 14 -107 13 -115z
m2379 -2 c-3 -8 -6 -5 -6 6 -1 11 2 17 5 13 3 -3 4 -12 1 -19z m-12 -75 c-30
-251 -150 -694 -212 -785 -27 -40 -40 -49 -28 -20 21 52 161 542 198 689 23
95 44 173 46 173 2 0 0 -26 -4 -57z m-2267 -438 c0 -16 -2 -15 -8 5 -11 34
-11 60 0 35 5 -11 8 -29 8 -40z m1126 -225 c5 -29 2 -26 -13 15 -11 28 -19 57
-19 65 0 23 25 -40 32 -80z m5923 12 c13 -8 76 -197 71 -213 -2 -5 -20 36 -40
93 l-36 103 -68 -2 c-38 -1 -121 -15 -184 -32 -160 -42 -172 -44 -111 -21 29
11 99 31 155 44 139 34 193 41 213 28z m-6718 -119 c-40 -60 -39 -58 -39 -47
0 11 59 94 66 94 3 0 -9 -21 -27 -47z m6290 23 c-2 -2 -44 -20 -94 -39 -49
-19 -126 -51 -170 -71 -53 -24 -72 -30 -55 -16 20 15 184 85 290 123 19 7 35
8 29 3z m-372 -168 c-3 -8 -6 -5 -6 6 -1 11 2 17 5 13 3 -3 4 -12 1 -19z m38
-102 c8 -54 14 -101 11 -103 -5 -6 -36 166 -35 197 1 37 7 15 24 -94z m1082
-68 c-3 -8 -6 -5 -6 6 -1 11 2 17 5 13 3 -3 4 -12 1 -19z m-6031 -142 c15 -27
23 -46 16 -42 -7 4 -24 31 -38 59 -31 62 -18 52 22 -17z m4998 -148 l5 -53
-14 60 c-8 33 -14 69 -14 80 1 33 16 -26 23 -87z m-244 -105 c0 -8 -9 0 -50
45 l-45 47 48 -45 c26 -24 47 -45 47 -47z m162 -115 c59 -47 105 -88 102 -91
-11 -11 -70 33 -154 114 -100 95 -92 92 52 -23z"/>
<path d="M1872 4928 c-94 -139 -257 -416 -249 -424 3 -3 29 37 58 88 29 51 93
156 141 232 49 76 87 141 84 143 -2 2 -17 -15 -34 -39z"/>
</g>
</svg>
