<?xml version="1.0" encoding="utf-8"?>
<!-- Generator: Adobe Illustrator 23.0.0, SVG Export Plug-In . SVG Version: 6.00 Build 0)  -->
<svg version="1.1" id="Pattern" xmlns="http://www.w3.org/2000/svg" xmlns:xlink="http://www.w3.org/1999/xlink" x="0px" y="0px"
	 viewBox="0 0 400 400" style="enable-background:new 0 0 400 400;" xml:space="preserve">
<title>Gold and Silver Polka Dot Vector Pattern by Shapes4FREE.com</title>
<description>Download more freebies at Shapes4FREE.com</description>
<style type="text/css">
	.st0{fill:#E2C675;}
	.st1{fill:#D3D1D3;}
</style>
<path class="st0" d="M10,0H0v10C5.52,10,10,5.52,10,0z"/>
<circle class="st0" cx="20" cy="40" r="10"/>
<circle class="st1" cx="60" cy="40" r="10"/>
<circle class="st0" cx="100" cy="40" r="10"/>
<circle class="st1" cx="140" cy="40" r="10"/>
<circle class="st0" cx="180" cy="40" r="10"/>
<circle class="st1" cx="220" cy="40" r="10"/>
<circle class="st0" cx="260" cy="40" r="10"/>
<circle class="st1" cx="300" cy="40" r="10"/>
<circle class="st0" cx="340" cy="40" r="10"/>
<circle class="st1" cx="380" cy="40" r="10"/>
<path class="st1" d="M40,10c5.52,0,10-4.48,10-10H30C30,5.52,34.48,10,40,10z"/>
<path class="st0" d="M80,10c5.52,0,10-4.48,10-10H70C70,5.52,74.48,10,80,10z"/>
<path class="st1" d="M120,10c5.52,0,10-4.48,10-10h-20C110,5.52,114.48,10,120,10z"/>
<path class="st0" d="M160,10c5.52,0,10-4.48,10-10h-20C150,5.52,154.48,10,160,10z"/>
<path class="st1" d="M200,10c5.52,0,10-4.48,10-10h-20C190,5.52,194.48,10,200,10z"/>
<path class="st0" d="M240,10c5.52,0,10-4.48,10-10h-20C230,5.52,234.48,10,240,10z"/>
<path class="st1" d="M280,10c5.52,0,10-4.48,10-10h-20C270,5.52,274.48,10,280,10z"/>
<path class="st0" d="M320,10c5.52,0,10-4.48,10-10h-20C310,5.52,314.48,10,320,10z"/>
<path class="st1" d="M360,10c5.52,0,10-4.48,10-10h-20C350,5.52,354.48,10,360,10z"/>
<path class="st0" d="M400,10V0h-10C390,5.52,394.48,10,400,10z"/>
<path class="st0" d="M10,80c0-5.52-4.48-10-10-10v20C5.52,90,10,85.52,10,80z"/>
<circle class="st0" cx="20" cy="120" r="10"/>
<circle class="st1" cx="60" cy="120" r="10"/>
<circle class="st0" cx="100" cy="120" r="10"/>
<circle class="st1" cx="140" cy="120" r="10"/>
<circle class="st0" cx="180" cy="120" r="10"/>
<circle class="st1" cx="220" cy="120" r="10"/>
<circle class="st0" cx="260" cy="120" r="10"/>
<circle class="st1" cx="300" cy="120" r="10"/>
<circle class="st0" cx="340" cy="120" r="10"/>
<circle class="st1" cx="380" cy="120" r="10"/>
<circle class="st1" cx="40" cy="80" r="10"/>
<circle class="st0" cx="80" cy="80" r="10"/>
<circle class="st1" cx="120" cy="80" r="10"/>
<circle class="st0" cx="160" cy="80" r="10"/>
<circle class="st1" cx="200" cy="80" r="10"/>
<circle class="st0" cx="240" cy="80" r="10"/>
<circle class="st1" cx="280" cy="80" r="10"/>
<circle class="st0" cx="320" cy="80" r="10"/>
<circle class="st1" cx="360" cy="80" r="10"/>
<path class="st0" d="M390,80c0,5.52,4.48,10,10,10V70C394.48,70,390,74.48,390,80z"/>
<path class="st0" d="M10,160c0-5.52-4.48-10-10-10v20C5.52,170,10,165.52,10,160z"/>
<circle class="st0" cx="20" cy="200" r="10"/>
<circle class="st1" cx="60" cy="200" r="10"/>
<circle class="st0" cx="100" cy="200" r="10"/>
<circle class="st1" cx="140" cy="200" r="10"/>
<circle class="st0" cx="180" cy="200" r="10"/>
<circle class="st1" cx="220" cy="200" r="10"/>
<circle class="st0" cx="260" cy="200" r="10"/>
<circle class="st1" cx="300" cy="200" r="10"/>
<circle class="st0" cx="340" cy="200" r="10"/>
<circle class="st1" cx="380" cy="200" r="10"/>
<circle class="st1" cx="40" cy="160" r="10"/>
<circle class="st0" cx="80" cy="160" r="10"/>
<circle class="st1" cx="120" cy="160" r="10"/>
<circle class="st0" cx="160" cy="160" r="10"/>
<circle class="st1" cx="200" cy="160" r="10"/>
<circle class="st0" cx="240" cy="160" r="10"/>
<circle class="st1" cx="280" cy="160" r="10"/>
<circle class="st0" cx="320" cy="160" r="10"/>
<circle class="st1" cx="360" cy="160" r="10"/>
<path class="st0" d="M390,160c0,5.52,4.48,10,10,10v-20C394.48,150,390,154.48,390,160z"/>
<path class="st0" d="M10,240c0-5.52-4.48-10-10-10v20C5.52,250,10,245.52,10,240z"/>
<circle class="st0" cx="20" cy="280" r="10"/>
<circle class="st1" cx="60" cy="280" r="10"/>
<circle class="st0" cx="100" cy="280" r="10"/>
<circle class="st1" cx="140" cy="280" r="10"/>
<circle class="st0" cx="180" cy="280" r="10"/>
<circle class="st1" cx="220" cy="280" r="10"/>
<circle class="st0" cx="260" cy="280" r="10"/>
<circle class="st1" cx="300" cy="280" r="10"/>
<circle class="st0" cx="340" cy="280" r="10"/>
<circle class="st1" cx="380" cy="280" r="10"/>
<circle class="st1" cx="40" cy="240" r="10"/>
<circle class="st0" cx="80" cy="240" r="10"/>
<circle class="st1" cx="120" cy="240" r="10"/>
<circle class="st0" cx="160" cy="240" r="10"/>
<circle class="st1" cx="200" cy="240" r="10"/>
<circle class="st0" cx="240" cy="240" r="10"/>
<circle class="st1" cx="280" cy="240" r="10"/>
<circle class="st0" cx="320" cy="240" r="10"/>
<circle class="st1" cx="360" cy="240" r="10"/>
<path class="st0" d="M390,240c0,5.52,4.48,10,10,10v-20C394.48,230,390,234.48,390,240z"/>
<path class="st0" d="M10,320c0-5.52-4.48-10-10-10v20C5.52,330,10,325.52,10,320z"/>
<circle class="st0" cx="20" cy="360" r="10"/>
<circle class="st1" cx="60" cy="360" r="10"/>
<circle class="st0" cx="100" cy="360" r="10"/>
<circle class="st1" cx="140" cy="360" r="10"/>
<circle class="st0" cx="180" cy="360" r="10"/>
<circle class="st1" cx="220" cy="360" r="10"/>
<circle class="st0" cx="260" cy="360" r="10"/>
<circle class="st1" cx="300" cy="360" r="10"/>
<circle class="st0" cx="340" cy="360" r="10"/>
<circle class="st1" cx="380" cy="360" r="10"/>
<circle class="st1" cx="40" cy="320" r="10"/>
<circle class="st0" cx="80" cy="320" r="10"/>
<circle class="st1" cx="120" cy="320" r="10"/>
<circle class="st0" cx="160" cy="320" r="10"/>
<circle class="st1" cx="200" cy="320" r="10"/>
<circle class="st0" cx="240" cy="320" r="10"/>
<circle class="st1" cx="280" cy="320" r="10"/>
<circle class="st0" cx="320" cy="320" r="10"/>
<circle class="st1" cx="360" cy="320" r="10"/>
<path class="st0" d="M390,320c0,5.52,4.48,10,10,10v-20C394.48,310,390,314.48,390,320z"/>
<path class="st0" d="M0,390v10h10C10,394.48,5.52,390,0,390z"/>
<path class="st1" d="M40,390c-5.52,0-10,4.48-10,10h20C50,394.48,45.52,390,40,390z"/>
<path class="st0" d="M80,390c-5.52,0-10,4.48-10,10h20C90,394.48,85.52,390,80,390z"/>
<path class="st1" d="M120,390c-5.52,0-10,4.48-10,10h20C130,394.48,125.52,390,120,390z"/>
<path class="st0" d="M160,390c-5.52,0-10,4.48-10,10h20C170,394.48,165.52,390,160,390z"/>
<path class="st1" d="M200,390c-5.52,0-10,4.48-10,10h20C210,394.48,205.52,390,200,390z"/>
<path class="st0" d="M240,390c-5.52,0-10,4.48-10,10h20C250,394.48,245.52,390,240,390z"/>
<path class="st1" d="M280,390c-5.52,0-10,4.48-10,10h20C290,394.48,285.52,390,280,390z"/>
<path class="st0" d="M320,390c-5.52,0-10,4.48-10,10h20C330,394.48,325.52,390,320,390z"/>
<path class="st1" d="M360,390c-5.52,0-10,4.48-10,10h20C370,394.48,365.52,390,360,390z"/>
<path class="st0" d="M400,390c-5.52,0-10,4.48-10,10h10V390z"/>
</svg>
